<svg width="20" height="36" viewBox="0 0 20 36" fill="none" xmlns="http://www.w3.org/2000/svg">
<path d="M0 10.125C0 7.43968 1.05357 4.86435 2.92893 2.96554C4.8043 1.06674 7.34784 0 10 0C12.6522 0 15.1957 1.06674 17.0711 2.96554C18.9464 4.86435 20 7.43968 20 10.125C20 12.8103 18.9464 15.3857 17.0711 17.2845C15.1957 19.1833 12.6522 20.25 10 20.25C7.34784 20.25 4.8043 19.1833 2.92893 17.2845C1.05357 15.3857 0 12.8103 0 10.125ZM10 5.625C10.6111 5.625 11.1111 5.11875 11.1111 4.5C11.1111 3.88125 10.6111 3.375 10 3.375C6.31944 3.375 3.33333 6.39844 3.33333 10.125C3.33333 10.7438 3.83333 11.25 4.44444 11.25C5.05556 11.25 5.55556 10.7438 5.55556 10.125C5.55556 7.64297 7.54861 5.625 10 5.625ZM7.77778 33.75V22.2961C8.5 22.4297 9.24306 22.5 10 22.5C10.7569 22.5 11.5 22.4297 12.2222 22.2961V33.75C12.2222 34.9945 11.2292 36 10 36C8.77083 36 7.77778 34.9945 7.77778 33.75Z" fill="url(#paint0_linear_4_3)"/>
<defs>
<linearGradient id="paint0_linear_4_3" x1="14.0385" y1="38.3478" x2="4.50514" y2="2.42813" gradientUnits="userSpaceOnUse">
<stop stop-color="#1E227B"/>
<stop offset="1" stop-color="#077ECB"/>
</linearGradient>
</defs>
</svg>
